<svg xmlns="http://www.w3.org/2000/svg" viewBox="0 0 24 24"><path fill="#000" d="M12.3 3.1c4.5 0 8.1 3.1 8.1 7.4 0 3.9-3.1 7.2-7.2 7.5l-1.5 2.2c-.25.36-.78.36-1.03 0L9.2 17.95c-1.2-.2-2.31-.66-3.2-1.32l-2.22.72a.7.7 0 0 1-.87-.87l.78-2.4c-.53-1.05-.83-2.25-.83-3.58 0-4.3 3.6-7.4 9.44-7.4zm-.05 2.15c-4.57 0-7.2 2.13-7.2 5.25 0 1.1.3 2.08.88 2.88l.2.28-.37 1.14 1.07-.35.3.24c.84.68 1.95 1.1 3.2 1.2l.44.04 1.43 2.08 1.33-1.96.52-.03c2.9-.16 5.17-2.5 5.17-5.52 0-3.12-2.62-5.25-6.97-5.25zM8.35 10.1a1.1 1.1 0 1 1 0 2.2 1.1 1.1 0 0 1 0-2.2zm7.3 0a1.1 1.1 0 1 1 0 2.2 1.1 1.1 0 0 1 0-2.2zm-5.4 4.05h4.05v1.55h-4.05v-1.55z"/></svg>