<svg xmlns="http://www.w3.org/2000/svg" viewBox="0 0 64 64" aria-hidden="true">
  <g fill="none" stroke="#000" stroke-width="5.2" stroke-linecap="round" stroke-linejoin="round">
    <path d="M33 8C18.5 8 8.8 17 8.8 29.7c0 4.2 1.1 8 3.2 11.2-1.4 3.1-4 5.3-7.4 6.1 3.4 3.4 7.5 4.9 12 4.2C21.1 54.3 26.8 56 33 56c14.5 0 26.2-10.7 26.2-24S47.5 8 33 8Z"/>
    <path d="M20.5 30h.1M45.5 30h.1" stroke-width="6.4"/>
    <path d="M23 39c5.8 5 14.2 5 20 0"/>
  </g>
  <g fill="#000">
    <circle cx="21" cy="54" r="5"/>
    <circle cx="45" cy="54" r="5"/>
  </g>
</svg>