<svg xmlns="http://www.w3.org/2000/svg" viewBox="0 0 64 64" aria-hidden="true">
  <path
    fill="none"
    stroke="#f3a1be"
    stroke-width="5.2"
    stroke-linecap="round"
    stroke-linejoin="round"
    d="M32 8.5a23 23 0 0 0-19.3 35.5L10 54l10.3-2.7A23 23 0 1 0 32 8.5Z"/>
  <path
    fill="#f3a1be"
    d="M23.2 20.6c-.7 0-1.5.2-2.4 1.1-1 .9-2.8 2.8-2.8 6.7 0 3.9 2.9 7.7 3.3 8.2.4.5 5.6 8.8 13.9 12 6.9 2.7 8.3 2.1 9.8 2 1.5-.1 4.8-2 5.5-3.9.7-1.9.7-3.5.5-3.9-.2-.4-.8-.6-1.7-1l-5.6-2.8c-.8-.4-1.4-.6-2 .3-.6.9-2.3 2.8-2.8 3.4-.5.6-1.1.7-2 .2-.9-.4-3.8-1.4-7.2-4.4-2.7-2.4-4.5-5.3-5-6.2-.5-.9-.1-1.4.4-1.8.4-.4.9-1.1 1.3-1.6.4-.5.6-.9.9-1.5.3-.6.1-1.1-.1-1.6l-2.6-6.2c-.7-1.6-1.3-1.4-1.9-1.4h-1.5Z"/>
</svg>
