<svg xmlns="http://www.w3.org/2000/svg" viewBox="0 0 64 64" role="img" aria-hidden="true">
  <path fill="#25D366" d="M32 7C18.2 7 7 18.2 7 32c0 4.4 1.2 8.7 3.3 12.5L7.6 56.5l12.2-3.2A24.7 24.7 0 0 0 32 57c13.8 0 25-11.2 25-25S45.8 7 32 7Zm0 45.6c-3.9 0-7.6-1.1-10.9-3.1l-.8-.5-7.2 1.9 1.9-7-.5-.8A20.2 20.2 0 0 1 11.4 32c0-11.4 9.2-20.6 20.6-20.6S52.6 20.6 52.6 32 43.4 52.6 32 52.6Zm11.3-15.4c-.6-.3-3.7-1.8-4.2-2-.6-.2-1-.3-1.4.3-.4.6-1.6 2-1.9 2.4-.4.4-.7.5-1.3.2-.6-.3-2.6-.9-4.9-3-1.8-1.6-3-3.5-3.4-4.1-.4-.6 0-.9.3-1.2.3-.3.6-.7.9-1 .3-.4.4-.6.6-1 .2-.4.1-.8 0-1.1-.1-.3-1.4-3.4-1.9-4.6-.5-1.2-1-1-1.4-1h-1.2c-.4 0-1.1.2-1.7.8-.6.6-2.2 2.1-2.2 5.2 0 3.1 2.3 6.1 2.6 6.5.3.4 4.5 6.9 10.9 9.6 1.5.7 2.7 1.1 3.7 1.4 1.5.5 2.9.4 4 .2 1.2-.2 3.7-1.5 4.2-3 .5-1.5.5-2.8.4-3-.2-.3-.6-.4-1.2-.7Z"/>
</svg>
