<svg xmlns="http://www.w3.org/2000/svg" viewBox="0 0 24 24"><path fill="#000" d="M12.04 2.3a9.65 9.65 0 0 0-8.36 14.48L2.7 21.7l5.05-.94a9.66 9.66 0 1 0 4.29-18.46zm0 17.15a7.42 7.42 0 0 1-3.78-1.03l-.27-.16-3 .56.57-2.92-.18-.3a7.44 7.44 0 1 1 6.66 3.85zm4.07-5.56c-.22-.11-1.32-.65-1.52-.73-.2-.07-.35-.11-.5.11-.15.22-.57.73-.7.88-.13.15-.26.17-.48.06-.22-.11-.93-.34-1.78-1.1-.66-.59-1.1-1.31-1.23-1.53-.13-.22-.01-.34.1-.45.1-.1.22-.26.33-.39.11-.13.15-.22.22-.37.07-.15.04-.28-.02-.39-.06-.11-.5-1.2-.68-1.64-.18-.43-.36-.37-.5-.38h-.43c-.15 0-.39.06-.59.28-.2.22-.77.75-.77 1.82s.79 2.12.9 2.27c.11.15 1.56 2.38 3.78 3.34.53.23.94.37 1.26.47.53.17 1.01.15 1.39.09.42-.06 1.32-.54 1.5-1.06.19-.52.19-.97.13-1.06-.05-.09-.2-.15-.42-.26z"/></svg>