<svg xmlns="http://www.w3.org/2000/svg" viewBox="0 0 760 480">
  <defs>
    <linearGradient id="skin" x1="0" x2="1" y1="0" y2="1">
      <stop offset="0" stop-color="#ffe2e8"/>
      <stop offset="1" stop-color="#efb7c5"/>
    </linearGradient>
    <filter id="soft" x="-20%" y="-20%" width="140%" height="140%">
      <feGaussianBlur stdDeviation="12"/>
    </filter>
  </defs>
  <ellipse cx="380" cy="250" rx="315" ry="170" fill="url(#skin)" opacity=".7"/>
  <path d="M125 245 C220 120 540 115 650 245" fill="none"
    stroke="#5b2e34" stroke-width="20" stroke-linecap="round"/>
  <path d="M145 255 C250 330 515 332 635 255" fill="none"
    stroke="#d98aa0" stroke-width="12" stroke-linecap="round" opacity=".55"/>
  <ellipse cx="390" cy="250" rx="72" ry="82" fill="#7b4c38"/>
  <ellipse cx="390" cy="250" rx="34" ry="40" fill="#151515"/>
  <circle cx="368" cy="222" r="13" fill="#fff" opacity=".86"/>
  <g stroke="#171313" stroke-width="6" stroke-linecap="round">
    <path d="M175 220 C160 185 150 158 145 125"/>
    <path d="M220 185 C205 145 200 118 205 92"/>
    <path d="M265 160 C255 125 255 96 265 72"/>
    <path d="M315 145 C310 105 315 75 330 52"/>
    <path d="M370 140 C370 98 382 70 405 48"/>
    <path d="M430 145 C438 105 455 80 485 60"/>
    <path d="M490 160 C505 125 530 102 565 88"/>
    <path d="M548 185 C570 153 600 135 640 126"/>
  </g>
  <ellipse cx="385" cy="275" rx="250" ry="45" fill="#fff" opacity=".18" filter="url(#soft)"/>
</svg>